<?xml version="1.0" encoding="utf-8"?>
<!-- Generator: Adobe Illustrator 24.3.0, SVG Export Plug-In . SVG Version: 6.00 Build 0)  -->
<svg version="1.1" xmlns="http://www.w3.org/2000/svg" xmlns:xlink="http://www.w3.org/1999/xlink" x="0px" y="0px"
	 viewBox="0 0 711.5 128.5" style="enable-background:new 0 0 1920 1080;" xml:space="preserve" >
<g id="layer3" style="fill:white;" >
	<g>
		<defs>
			<rect id="SVGID_1_" x="0.5" y="-0.5" width="711" height="129"/>
		</defs>
		<clipPath id="SVGID_2_">
			<use xlink:href="#SVGID_1_"  style="overflow:visible;"/>
		</clipPath>
		<g class="st1">
			<circle cx="506.88" cy="15.28" r="9.18"/>
		</g>
		<g class="st1">
			<path d="M693.66,127.92c-4.61,0-8.34-3.74-8.34-8.34V85.36c0-14.26-11.6-25.87-25.87-25.87c-14.26,0-25.87,11.6-25.87,25.87
				c0,4.61-3.74,8.34-8.34,8.34c-4.61,0-8.34-3.74-8.34-8.34c0-23.46,19.09-42.55,42.55-42.55c23.46,0,42.55,19.09,42.55,42.55
				v34.21C702,124.18,698.26,127.92,693.66,127.92z"/>
		</g>
		<g class="st1">
			<path d="M244.5,127.92c-23.46,0-42.55-17.42-42.55-38.83V51.15c0-4.61,3.74-8.34,8.34-8.34s8.34,3.74,8.34,8.34v37.93
				c0,12.21,11.6,22.15,25.87,22.15c14.26,0,25.87-9.93,25.87-22.15V51.15c0-4.61,3.74-8.34,8.34-8.34s8.34,3.74,8.34,8.34v37.93
				C287.05,110.5,267.96,127.92,244.5,127.92z"/>
		</g>
		<g class="st1">
			<rect x="399.24" y="51.15" width="1.67" height="68.42"/>
			<path d="M408.91,127.92h-1.67c-4.61,0-8.34-3.74-8.34-8.34V51.15c0-4.61,3.74-8.34,8.34-8.34h1.67c4.61,0,8.34,3.74,8.34,8.34
				v68.42C417.25,124.18,413.52,127.92,408.91,127.92z"/>
		</g>
		<g class="st1">
			<path d="M477.33,93.71c-4.61,0-8.34-3.74-8.34-8.34c0-14.26-11.6-25.87-25.87-25.87s-25.87,11.6-25.87,25.87
				c0,4.61-3.74,8.34-8.34,8.34c-4.61,0-8.34-3.74-8.34-8.34c0-23.46,19.09-42.55,42.55-42.55c23.46,0,42.55,19.09,42.55,42.55
				C485.67,89.97,481.94,93.71,477.33,93.71z"/>
		</g>
		<g class="st1">
			<path d="M507.72,127.92h-1.67c-4.61,0-8.34-3.74-8.34-8.34V51.15c0-4.61,3.74-8.34,8.34-8.34h1.67c4.61,0,8.34,3.74,8.34,8.34
				v68.42C516.06,124.18,512.32,127.92,507.72,127.92z"/>
		</g>
		<g class="st1">
			<g>
				<path d="M67.15,128.12c-2.1,0-4.39-0.04-6.89-0.08c-3.37-0.06-7.25-0.12-11.7-0.12C25.09,127.92,6,108.83,6,85.36
					s19.09-42.55,42.55-42.55S91.11,61.9,91.11,85.36c0,4.45,0.07,8.33,0.12,11.7c0.22,13.35,0.35,20.7-4.96,26.01
					C81.95,127.4,76.28,128.12,67.15,128.12z M48.55,59.5c-14.26,0-25.87,11.6-25.87,25.87s11.6,25.87,25.87,25.87
					c4.56,0,8.53,0.07,11.98,0.13c5.6,0.09,11.38,0.19,13.74-0.27c0.46-2.36,0.37-8.13,0.27-13.74c-0.06-3.45-0.12-7.42-0.12-11.98
					C74.42,71.1,62.82,59.5,48.55,59.5z"/>
			</g>
			<g>
				<rect x="82.76" y="14.44" width="1.67" height="105.13"/>
				<path d="M84.43,127.92h-1.67c-4.61,0-8.34-3.74-8.34-8.34V14.44c0-4.61,3.74-8.34,8.34-8.34h1.67c4.61,0,8.34,3.74,8.34,8.34
					v105.13C92.78,124.18,89.04,127.92,84.43,127.92z"/>
			</g>
			<g>
				<rect x="61.07" y="121.24" width="21.69" height="6.68"/>
			</g>
		</g>
		<g class="st1">
			<path d="M626.91,127.92h-1.67c-4.61,0-8.34-3.74-8.34-8.34V14.44c0-4.61,3.74-8.34,8.34-8.34h1.67c4.61,0,8.34,3.74,8.34,8.34
				v105.13C635.25,124.18,631.51,127.92,626.91,127.92z"/>
		</g>
		<g class="st1">
			<g>
				<path d="M378.52,127.92h-1.67c-4.61,0-8.34-3.74-8.34-8.34V14.44c0-4.61,3.74-8.34,8.34-8.34h1.67c4.61,0,8.34,3.74,8.34,8.34
					v105.13C386.86,124.18,380.46,127.92,378.52,127.92z"/>
			</g>
			<g>
				<polygon points="352.16,121.24 373.85,121.24 378,128 351.16,127.92 				"/>
			</g>
			<g>
				<path d="M379.35,123.08c5.31-5.31,5.19-12.66,4.97-26.01c-0.06-3.37-0.12-7.25-0.12-11.7c0-23.46-19.09-42.55-42.55-42.55
					c-23.46,0-42.55,19.09-42.55,42.55c0,23.46,19.09,42.55,42.55,42.55c3.41,0,6.47,0.04,9.23,0.08h14.59
					C371.64,127.66,375.93,126.5,379.35,123.08z M341.64,111.23c-14.26,0-25.87-11.6-25.87-25.87s11.6-25.87,25.87-25.87
					s25.87,11.6,25.87,25.87c0,4.56,0.07,8.53,0.13,11.98c0.09,5.6,0.19,11.38-0.27,13.74c-2.36,0.46-8.13,0.37-13.74,0.27
					C350.17,111.3,346.2,111.23,341.64,111.23z"/>
			</g>
		</g>
		<g class="st1">
			<path d="M164.46,128c-0.02,0-0.2,0-0.45,0c0,0,0,0,0,0c-0.67,0-2.13-0.01-6-0.06c-3.08-0.04-6.57-0.09-10.53-0.09
				c-23.35,0-42.35-19-42.35-42.35c0-23.35,19-42.35,42.35-42.35s42.35,19,42.35,42.35c0,0.65,0.08,4.15,0.11,11.12
				c0.07,13.34,0.05,24.17,0.03,31.38C176.37,128,164.59,128,164.46,128z M147.48,60.86c-13.59,0-24.64,11.05-24.64,24.64
				s11.05,24.64,24.64,24.64c4.05,0,7.62,0.05,10.77,0.09c5.55,0.07,11.25,0.15,13.77-0.27c0.39-2.43,0.3-7.81,0.21-13.04
				c-0.05-3.3-0.12-7.09-0.12-11.41C172.12,71.91,161.07,60.86,147.48,60.86z"/>
		</g>
		<g class="st1">
			<path d="M571.44,127.5c-0.21,0-0.41,0-0.62,0c-20.43-0.33-42.31-17.46-42.31-42.45c0-23.41,19.04-42.45,42.45-42.45
				c6.04,0,11.87,1.69,12.51,1.88c0.04,0.01,0.07,0.02,0.11,0.03c7.38,2.31,14.06,6.67,19.34,12.62c3.11,3.51,2.79,8.89-0.72,12
				c-3.51,3.11-8.88,2.79-12-0.72c-2.24-2.52-6.07-5.89-11.62-7.65c-1.14-0.33-4.65-1.16-7.62-1.16
				c-14.03,0-25.45,11.42-25.45,25.45c0,14.76,13.48,25.26,25.58,25.45c9.89,0.19,17.24-6.75,19.26-8.87
				c3.24-3.4,8.62-3.53,12.02-0.29c3.4,3.24,3.53,8.62,0.29,12.02C598.57,117.65,587.43,127.5,571.44,127.5z"/>
		</g>
	</g>
</g>
</svg>
